<svg xmlns="http://www.w3.org/2000/svg"
     viewBox="0 0 64 64"
     width="64" height="64"
     preserveAspectRatio="xMidYMid meet"
     role="img" aria-label="D8">
  <defs>
    <radialGradient id="faceGrad" cx="50%" cy="40%" r="75%">
      <stop offset="0%" stop-color="#1668dc"/>
      <stop offset="100%" stop-color="#15325b"/>
    </radialGradient>
  </defs>
  <!-- Faces -->
  <polygon points="32,6 6,32 32,32" fill="url(#faceGrad)" opacity="0.95"/>
  <polygon points="32,6 32,32 58,32" fill="url(#faceGrad)" opacity="1"/>
  <polygon points="6,32 32,58 32,32" fill="url(#faceGrad)" opacity="0.88"/>
  <polygon points="32,32 32,58 58,32" fill="url(#faceGrad)" opacity="0.82"/>

  <!-- Edges -->
  <polygon points="32,6 6,32 32,58 58,32"
           fill="none" stroke="#001529" stroke-width="2" stroke-linejoin="round"/>
  <polyline points="6,32 58,32" fill="none" stroke="#001529" stroke-width="2" stroke-linecap="round"/>
  <polyline points="32,6 32,58" fill="none" stroke="#001529" stroke-width="2" stroke-linecap="round"/>

  <!-- Numbers -->
  <g fill="#ffffff"
     font-family="system-ui, -apple-system, Segoe UI, Roboto, Arial, sans-serif"
     font-weight="800"
     font-size="10"
     text-anchor="middle"
     dominant-baseline="middle">
    <!-- Haut : à l'envers -->
    <text x="24" y="23" transform="rotate(135 24 23)">1</text>
    <text x="42" y="24" transform="rotate(225 42 24)">4</text>

    <!-- Bas : normal -->
    <text x="24" y="41" transform="rotate(45 24 41)">5</text>
    <text x="41" y="41" transform="rotate(315 41 41)">8</text>
  </g>
</svg>
